<?xml version="1.0" encoding="UTF-8"?>
<svg id="Calque_8" data-name="Calque 8" xmlns="http://www.w3.org/2000/svg" viewBox="0 0 448.85 540">
  <defs>
    <style>
      .cls-1 {
        fill: #472409;
      }

      .cls-2 {
        fill: #fff;
      }

      .cls-3 {
        fill: #f88968;
      }

      .cls-4 {
        fill: #996a00;
      }

      .cls-5 {
        fill: #e2e2e2;
      }

      .cls-6, .cls-7 {
        fill: #32324c;
      }

      .cls-8 {
        fill: #6c4b32;
      }

      .cls-7 {
        opacity: .1;
      }

      .cls-9 {
        fill: #ffaf82;
      }

      .cls-10 {
        fill: #ffa378;
      }

      .cls-11 {
        fill: #009762;
      }
    </style>
  </defs>
  <g>
    <rect class="cls-8" x="319.69" y="34.02" width="2.5" height="133.17"/>
    <polygon class="cls-4" points="322.19 34.55 322.19 35.3 319.69 37.8 319.69 37.05 322.19 34.55"/>
    <polygon class="cls-4" points="322.19 38.31 322.19 39.07 319.69 41.57 319.69 40.81 322.19 38.31"/>
    <polygon class="cls-4" points="322.19 42.08 322.19 42.84 319.69 45.34 319.69 44.58 322.19 42.08"/>
    <polygon class="cls-4" points="322.19 45.85 322.19 46.6 319.69 49.1 319.69 48.35 322.19 45.85"/>
    <polygon class="cls-4" points="322.19 49.61 322.19 50.36 319.69 52.86 319.69 52.11 322.19 49.61"/>
    <polygon class="cls-4" points="322.19 53.38 322.19 54.13 319.69 56.63 319.69 55.88 322.19 53.38"/>
    <polygon class="cls-4" points="322.19 57.15 322.19 57.89 319.69 60.39 319.69 59.65 322.19 57.15"/>
    <polygon class="cls-4" points="322.19 60.91 322.19 61.66 319.69 64.16 319.69 63.41 322.19 60.91"/>
    <polygon class="cls-4" points="322.19 64.67 322.19 65.43 319.69 67.93 319.69 67.17 322.19 64.67"/>
    <polygon class="cls-4" points="322.19 68.44 322.19 69.19 319.69 71.69 319.69 70.94 322.19 68.44"/>
    <polygon class="cls-4" points="322.19 72.2 322.19 72.96 319.69 75.46 319.69 74.7 322.19 72.2"/>
    <polygon class="cls-4" points="322.19 75.97 322.19 76.73 319.69 79.23 319.69 78.47 322.19 75.97"/>
    <polygon class="cls-4" points="322.19 79.74 322.19 80.49 319.69 82.99 319.69 82.24 322.19 79.74"/>
    <polygon class="cls-4" points="322.19 83.5 322.19 84.26 319.69 86.76 319.69 86 322.19 83.5"/>
    <polygon class="cls-4" points="322.19 87.27 322.19 88.03 319.69 90.53 319.69 89.77 322.19 87.27"/>
    <polygon class="cls-4" points="322.19 91.04 322.19 91.79 319.69 94.29 319.69 93.54 322.19 91.04"/>
    <polygon class="cls-4" points="322.19 94.8 322.19 95.55 319.69 98.05 319.69 97.3 322.19 94.8"/>
    <polygon class="cls-4" points="322.19 98.57 322.19 99.32 319.69 101.82 319.69 101.06 322.19 98.57"/>
    <polygon class="cls-4" points="322.19 102.34 322.19 103.09 319.69 105.59 319.69 104.83 322.19 102.34"/>
    <polygon class="cls-4" points="322.19 106.11 322.19 106.85 319.69 109.35 319.69 108.6 322.19 106.11"/>
    <polygon class="cls-4" points="322.19 109.86 322.19 110.62 319.69 113.12 319.69 112.36 322.19 109.86"/>
    <polygon class="cls-4" points="322.19 113.63 322.19 114.39 319.69 116.89 319.69 116.13 322.19 113.63"/>
    <polygon class="cls-4" points="322.19 117.4 322.19 118.15 319.69 120.65 319.69 119.9 322.19 117.4"/>
    <polygon class="cls-4" points="322.19 121.16 322.19 121.92 319.69 124.42 319.69 123.66 322.19 121.16"/>
    <polygon class="cls-4" points="322.19 124.93 322.19 125.69 319.69 128.19 319.69 127.43 322.19 124.93"/>
    <polygon class="cls-4" points="322.19 128.7 322.19 129.45 319.69 131.95 319.69 131.2 322.19 128.7"/>
    <polygon class="cls-4" points="322.19 132.47 322.19 133.21 319.69 135.71 319.69 134.97 322.19 132.47"/>
    <polygon class="cls-4" points="322.19 136.23 322.19 136.98 319.69 139.48 319.69 138.73 322.19 136.23"/>
    <polygon class="cls-4" points="322.19 140 322.19 140.75 319.69 143.25 319.69 142.5 322.19 140"/>
    <polygon class="cls-4" points="322.19 143.76 322.19 144.51 319.69 147.01 319.69 146.26 322.19 143.76"/>
    <polygon class="cls-4" points="322.19 147.52 322.19 148.28 319.69 150.78 319.69 150.02 322.19 147.52"/>
    <polygon class="cls-4" points="322.19 151.29 322.19 152.05 319.69 154.55 319.69 153.79 322.19 151.29"/>
    <polygon class="cls-4" points="322.19 155.06 322.19 155.81 319.69 158.31 319.69 157.56 322.19 155.06"/>
    <polygon class="cls-4" points="322.19 158.82 322.19 159.58 319.69 162.08 319.69 161.32 322.19 158.82"/>
    <polygon class="cls-4" points="322.19 162.59 322.19 163.35 319.69 165.85 319.69 165.09 322.19 162.59"/>
    <polygon class="cls-4" points="322.19 166.36 322.19 167.11 322.11 167.19 321.36 167.19 322.19 166.36"/>
  </g>
  <g>
    <ellipse class="cls-7" cx="319.76" cy="514.27" rx="60.97" ry="9.25"/>
    <g>
      <g>
        <path class="cls-11" d="m349.79,286.59c-5.86,3.07-11.3,5.33-16.75,6.69-4.1,1.03-8.21,1.55-12.52,1.52-3.81.03-7.42-.38-10.99-1.18-5.83-1.31-11.57-3.69-17.94-7.03l2.41-50.04-.26-58.37,14.82-3.98,4.46-1.19c2.46-.66,4.98-.98,7.5-1,2.52.02,5.04.34,7.5,1l5.02,1.35,14.26,3.82-.26,58.37,2.75,50.04Z"/>
        <g>
          <path class="cls-2" d="m333.04,174.36v118.92c-4.1,1.03-8.21,1.55-12.52,1.52-3.81.03-7.42-.38-10.99-1.18l-.02-2.96-.03-3.1-.06-7.2-.02-3.1-.06-7.19-.03-3.1-.05-7.19-.03-3.09-.06-7.19-.02-3.08-.06-7.2-.03-3.09-.06-7.2-.02-3.08-.06-7.21-.02-3.07-.06-7.22-.03-3.06-.06-7.22-.02-3.06-.06-7.21-.02-3.06-.06-7.23-.03-3.05v-.26l4.46-1.19c2.46-.66,4.98-.98,7.5-1,2.52.02,5.04.34,7.5,1l4.97,1.34h.05Z"/>
          <g>
            <path class="cls-5" d="m333.04,177.53v3.02c-4.27.74-8.44,1-12.27,1-4.74,0-8.96-.41-12.18-.87l-.03-3.05c5.67.82,14.9,1.57,24.43-.11h.05Z"/>
            <path class="cls-5" d="m333.04,186.13v3.04c-4.21.73-8.32,1-12.09,1-4.78,0-9.04-.43-12.28-.91l-.02-3.06c5.68.85,14.88,1.63,24.39-.07Z"/>
            <path class="cls-5" d="m333.04,194.97v3.06c-4.15.73-8.2,1-11.92,1-4.81,0-9.09-.45-12.37-.96l-.02-3.06c5.67.89,14.82,1.71,24.31-.04Z"/>
            <path class="cls-5" d="m333.04,205.29v3.06c-4.1.73-8.09,1-11.77,1-4.83,0-9.13-.47-12.43-1l-.03-3.06c5.67.92,14.77,1.77,24.23,0Z"/>
            <path class="cls-5" d="m333.04,215.62v3.05c-4.04.73-7.98,1.01-11.63,1.01-4.86,0-9.18-.49-12.49-1.04l-.02-3.07c5.66.96,14.7,1.83,24.14.05Z"/>
            <path class="cls-5" d="m333.04,225.93v3.06c-4,.74-7.89,1.01-11.49,1.01-4.88,0-9.22-.51-12.55-1.07l-.02-3.08c5.65,1,14.65,1.9,24.06.08Z"/>
            <path class="cls-5" d="m333.04,236.25v3.06c-3.95.74-7.81,1.02-11.37,1.02-4.88,0-9.23-.52-12.58-1.11l-.03-3.09c5.65,1.03,14.59,1.96,23.98.12Z"/>
            <path class="cls-5" d="m333.04,246.57v3.06c-3.92.75-7.73,1.03-11.25,1.03-4.9,0-9.25-.54-12.62-1.16l-.02-3.08c5.64,1.06,14.53,2.01,23.89.15Z"/>
            <path class="cls-5" d="m333.04,256.89v3.07c-3.88.74-7.65,1.02-11.15,1.02-4.9,0-9.25-.56-12.63-1.2l-.03-3.09c5.63,1.11,14.48,2.08,23.81.2Z"/>
            <path class="cls-5" d="m333.04,267.21v3.06c-3.85.75-7.58,1.04-11.05,1.04-4.9,0-9.26-.58-12.65-1.24l-.03-3.1c5.63,1.14,14.42,2.14,23.73.24Z"/>
            <path class="cls-5" d="m333.04,277.52v3.08c-3.82.75-7.52,1.04-10.95,1.04-4.91,0-9.27-.59-12.67-1.28l-.02-3.1c5.62,1.17,14.36,2.19,23.64.26Z"/>
            <path class="cls-5" d="m333.04,287.84v3.08c-3.79.75-7.45,1.04-10.86,1.04-4.9,0-9.26-.6-12.67-1.3l-.03-3.1c5.61,1.19,14.31,2.23,23.56.28Z"/>
          </g>
        </g>
      </g>
      <g>
        <path class="cls-9" d="m274.98,286.54s1.15,3.81,2.42,6.57c1.27,2.76.4,4.9,1.16,7.4.76,2.5-2.22,2.31-2.8-.31-.58-2.62-.33-3.86-.88-3.94-.55-.09-2.11,6.3-2.33,8.13-.22,1.83.15,6.42-.54,7.14-.69.71-2.34-1.87-1.82-6.64.52-4.78.14-4.67.14-4.67,0,0-.45,1.85-.92,3.85-.47,1.99-.48,4.42-.39,5.79.09,1.36-1.3,2.04-1.71,1.31-.41-.73-1.06-5.48-.51-7.34.55-1.86,1.22-5.04,1.22-5.04,0,0-1.83,4.27-2.14,5.38-.31,1.1.21,5.31-.75,6.08-.4.32-1.67-.11-1.46-6.1,0,0,.44-2.93,1.07-4.74,0,0-.98,1.35-1.46,3.17-.42,1.6-.65,3.28-.8,4.9-.14,1.62-1.54,1.41-1.55-1.45,0-2.86.48-6.01,1.28-7.54.8-1.52,1.98-10.43,4.36-13.69l8.39,1.77Z"/>
        <path class="cls-11" d="m301.9,191.16s-6.85,31.7-12.59,42.67c0,0-3.15,15.43-14.12,53.3,0,0-5.73,2.28-9.07-2.07,0,0,5.3-41.63,8.49-54.94,0,0,14.32-45.99,19.13-51.92,0,0,7.4,3,8.15,12.97Z"/>
      </g>
      <g>
        <path class="cls-9" d="m366.32,286.54s-1.15,3.81-2.42,6.57c-1.27,2.76-.4,4.9-1.16,7.4-.76,2.5,2.22,2.31,2.8-.31.58-2.62.33-3.86.88-3.94.55-.09,2.11,6.3,2.33,8.13.22,1.83-.15,6.42.54,7.14.69.71,2.34-1.87,1.82-6.64-.52-4.78-.14-4.67-.14-4.67,0,0,.45,1.85.92,3.85.47,1.99.48,4.42.39,5.79-.09,1.36,1.3,2.04,1.71,1.31.41-.73,1.06-5.48.51-7.34-.55-1.86-1.22-5.04-1.22-5.04,0,0,1.83,4.27,2.14,5.38.31,1.1-.21,5.31.75,6.08.4.32,1.67-.11,1.46-6.1,0,0-.44-2.93-1.07-4.74,0,0,.98,1.35,1.46,3.17.42,1.6.65,3.28.8,4.9.14,1.62,1.54,1.41,1.55-1.45,0-2.86-.48-6.01-1.28-7.54-.8-1.52-1.98-10.43-4.36-13.69l-8.39,1.77Z"/>
        <path class="cls-11" d="m339.4,191.16s6.85,31.7,12.59,42.67c0,0,3.15,15.43,14.12,53.3,0,0,5.73,2.28,9.07-2.07,0,0-5.3-41.63-8.49-54.94,0,0-14.32-45.99-19.13-51.92,0,0-7.4,3-8.15,12.97Z"/>
      </g>
      <g>
        <g>
          <path class="cls-9" d="m328.31,164.66l-.26,4.85-.32,6.07s-1.21,2.29-6.65,2.29-6.56-1.56-6.56-1.56l-.22-2.69-.73-8.95h14.74Z"/>
          <path class="cls-3" d="m328.31,164.66l-.26,4.85c-2.27,1.7-7.65,5.04-13.75,4.1l-.73-8.95h14.74Z"/>
        </g>
        <g>
          <path class="cls-10" d="m304.27,142.62s-4.17-4.08-7.5-1.42c-3.93,3.15.18,14.47,7.16,13.27l.34-11.85Z"/>
          <g>
            <path class="cls-3" d="m301.83,151.65c-.35-.01-.63-.28-.66-.63-.45-5.57-3.71-6.54-3.85-6.58-.37-.1-.58-.48-.48-.84.1-.37.47-.59.84-.49.18.05,4.34,1.2,4.87,7.8.03.38-.25.71-.63.74-.03,0-.05,0-.08,0Z"/>
            <path class="cls-3" d="m297.93,148.81c-.16,0-.32-.07-.45-.19-.28-.26-.29-.7-.02-.98.06-.06,1.48-1.52,3.72-.94.37.09.59.47.5.84-.09.37-.47.59-.84.5-1.48-.38-2.37.54-2.38.55-.14.15-.33.22-.52.21Z"/>
          </g>
        </g>
        <g>
          <path class="cls-10" d="m336.13,142.62s4.17-4.08,7.5-1.42c3.93,3.15-.18,14.47-7.16,13.27l-.34-11.85Z"/>
          <g>
            <path class="cls-3" d="m338.57,151.65c.35-.01.63-.28.66-.63.45-5.57,3.71-6.54,3.85-6.58.37-.1.58-.48.48-.84-.1-.37-.47-.59-.84-.49-.18.05-4.34,1.2-4.87,7.8-.03.38.25.71.63.74.03,0,.05,0,.08,0Z"/>
            <path class="cls-3" d="m342.47,148.81c.16,0,.32-.07.45-.19.28-.26.29-.7.02-.98-.06-.06-1.48-1.52-3.72-.94-.37.09-.59.47-.5.84.09.37.47.59.84.5,1.48-.38,2.37.54,2.38.55.14.15.33.22.52.21Z"/>
          </g>
        </g>
        <path class="cls-9" d="m320.41,169.42c-14.41,0-18.86-17.11-20.18-29.64-1.22-11.55,7.75-21.73,19.36-21.87.15,0,.31,0,.47,0,.19,0,.39,0,.58,0,11.47.15,20.41,10.06,19.42,21.49-1.1,12.69-5.24,30.02-19.64,30.02Z"/>
        <path class="cls-6" d="m338.7,108.7c7.31,5,.7,14.75.7,14.75,0,0,7.28,7.12-.21,23.9l-1.33-.27c.85-5.37.34-11.91,0-12.94-1.01-3.07-6.39-4.7-6.12-8.01,0,0-16.49,5.16-25.42.09,0,0-.7,4.25-3.15,6.93-2.05,2.24-.88,10.05-.62,13.43l-1.37.13c-.81-3.44-2.79-9.64-3.01-11.46-.13-1.15-.62-5.71-.83-8.98-.18-2.86.33-5.74,1.62-8.29.72-1.41,1.71-2.83,3.08-3.85,4.79-3.57,30.03-9.95,36.66-5.42Z"/>
        <path class="cls-6" d="m313.67,142.6c0,1.44-.64,2.61-1.43,2.61-.79,0-1.43-1.17-1.43-2.61,0-1.44.64-2.61,1.43-2.61.79,0,1.43,1.17,1.43,2.61Z"/>
        <path class="cls-6" d="m306.39,137.02s1.38-2.83,4.02-3.54c2.45-.66,4.2-.03,5.08.45.38.21.55.67.4,1.08h0c-.18.48-.73.71-1.2.49-1.48-.69-4.75-1.58-8.3,1.52Z"/>
        <path class="cls-6" d="m327.71,142.6c0,1.44.64,2.61,1.43,2.61.79,0,1.43-1.17,1.43-2.61,0-1.44-.64-2.61-1.43-2.61-.79,0-1.43,1.17-1.43,2.61Z"/>
        <path class="cls-6" d="m335,137.02s-1.38-2.83-4.02-3.54c-2.45-.66-4.2-.03-5.08.45-.38.21-.55.67-.4,1.08h0c.18.48.73.71,1.2.49,1.48-.69,4.75-1.58,8.3,1.52Z"/>
        <path class="cls-3" d="m320.44,151.44c-.23-.02-.44-.15-.57-.36-.22-.36-.11-.83.25-1.05l2.17-1.34-1.7-.63c-.28-.1-.48-.37-.5-.67l-.29-4.89c-.02-.42.29-.78.71-.8.42-.03.78.29.8.71l.26,4.39,2.7.99c.27.1.46.35.49.64.03.29-.11.57-.36.72l-3.5,2.16c-.15.09-.31.13-.47.11Z"/>
        <path class="cls-3" d="m323.65,158.81c-2.81.56-6.5.53-10.1-1.83-.35-.23-.45-.7-.22-1.05.23-.35.7-.45,1.05-.22,6.31,4.14,13.2.09,13.27.05.36-.22.82-.1,1.04.26.21.36.1.82-.26,1.04-.15.09-2.05,1.21-4.78,1.75Z"/>
        <path class="cls-3" d="m321.08,162.1c-1.26.03-2.71-.23-4.18-1.1-.25-.15-.33-.48-.18-.73.15-.25.48-.33.73-.18,3.53,2.1,6.97.1,7.11.01.25-.15.58-.07.73.18s.07.58-.18.73c-.11.06-1.76,1.04-4.02,1.09Z"/>
      </g>
    </g>
  </g>
  <rect class="cls-1" x="36.77" y="509.65" width="179.23" height="9.25" rx="4" ry="4"/>
  <rect class="cls-1" x="121.76" y="28.85" width="227.74" height="9.25" rx="4" ry="4"/>
  <rect class="cls-1" x="-115.82" y="266.43" width="484.42" height="9.25" rx="4" ry="4" transform="translate(-144.68 397.44) rotate(-90)"/>
</svg>