<?xml version="1.0" encoding="UTF-8"?>
<svg id="Calque_4" data-name="Calque 4" xmlns="http://www.w3.org/2000/svg" viewBox="0 0 448.85 540">
  <defs>
    <style>
      .cls-1 {
        fill: #472409;
      }

      .cls-2 {
        fill: #996a00;
      }

      .cls-3 {
        fill: #6c4b32;
      }
    </style>
  </defs>
  <g>
    <rect class="cls-3" x="319.69" y="34.02" width="2.5" height="133.17"/>
    <polygon class="cls-2" points="322.19 34.55 322.19 35.3 319.69 37.8 319.69 37.05 322.19 34.55"/>
    <polygon class="cls-2" points="322.19 38.31 322.19 39.07 319.69 41.57 319.69 40.81 322.19 38.31"/>
    <polygon class="cls-2" points="322.19 42.08 322.19 42.84 319.69 45.34 319.69 44.58 322.19 42.08"/>
    <polygon class="cls-2" points="322.19 45.85 322.19 46.6 319.69 49.1 319.69 48.35 322.19 45.85"/>
    <polygon class="cls-2" points="322.19 49.61 322.19 50.36 319.69 52.86 319.69 52.11 322.19 49.61"/>
    <polygon class="cls-2" points="322.19 53.38 322.19 54.13 319.69 56.63 319.69 55.88 322.19 53.38"/>
    <polygon class="cls-2" points="322.19 57.15 322.19 57.89 319.69 60.39 319.69 59.65 322.19 57.15"/>
    <polygon class="cls-2" points="322.19 60.91 322.19 61.66 319.69 64.16 319.69 63.41 322.19 60.91"/>
    <polygon class="cls-2" points="322.19 64.67 322.19 65.43 319.69 67.93 319.69 67.17 322.19 64.67"/>
    <polygon class="cls-2" points="322.19 68.44 322.19 69.19 319.69 71.69 319.69 70.94 322.19 68.44"/>
    <polygon class="cls-2" points="322.19 72.2 322.19 72.96 319.69 75.46 319.69 74.7 322.19 72.2"/>
    <polygon class="cls-2" points="322.19 75.97 322.19 76.73 319.69 79.23 319.69 78.47 322.19 75.97"/>
    <polygon class="cls-2" points="322.19 79.74 322.19 80.49 319.69 82.99 319.69 82.24 322.19 79.74"/>
    <polygon class="cls-2" points="322.19 83.5 322.19 84.26 319.69 86.76 319.69 86 322.19 83.5"/>
    <polygon class="cls-2" points="322.19 87.27 322.19 88.03 319.69 90.53 319.69 89.77 322.19 87.27"/>
    <polygon class="cls-2" points="322.19 91.04 322.19 91.79 319.69 94.29 319.69 93.54 322.19 91.04"/>
    <polygon class="cls-2" points="322.19 94.8 322.19 95.55 319.69 98.05 319.69 97.3 322.19 94.8"/>
    <polygon class="cls-2" points="322.19 98.57 322.19 99.32 319.69 101.82 319.69 101.06 322.19 98.57"/>
    <polygon class="cls-2" points="322.19 102.34 322.19 103.09 319.69 105.59 319.69 104.83 322.19 102.34"/>
    <polygon class="cls-2" points="322.19 106.11 322.19 106.85 319.69 109.35 319.69 108.6 322.19 106.11"/>
    <polygon class="cls-2" points="322.19 109.86 322.19 110.62 319.69 113.12 319.69 112.36 322.19 109.86"/>
    <polygon class="cls-2" points="322.19 113.63 322.19 114.39 319.69 116.89 319.69 116.13 322.19 113.63"/>
    <polygon class="cls-2" points="322.19 117.4 322.19 118.15 319.69 120.65 319.69 119.9 322.19 117.4"/>
    <polygon class="cls-2" points="322.19 121.16 322.19 121.92 319.69 124.42 319.69 123.66 322.19 121.16"/>
    <polygon class="cls-2" points="322.19 124.93 322.19 125.69 319.69 128.19 319.69 127.43 322.19 124.93"/>
    <polygon class="cls-2" points="322.19 128.7 322.19 129.45 319.69 131.95 319.69 131.2 322.19 128.7"/>
    <polygon class="cls-2" points="322.19 132.47 322.19 133.21 319.69 135.71 319.69 134.97 322.19 132.47"/>
    <polygon class="cls-2" points="322.19 136.23 322.19 136.98 319.69 139.48 319.69 138.73 322.19 136.23"/>
    <polygon class="cls-2" points="322.19 140 322.19 140.75 319.69 143.25 319.69 142.5 322.19 140"/>
    <polygon class="cls-2" points="322.19 143.76 322.19 144.51 319.69 147.01 319.69 146.26 322.19 143.76"/>
    <polygon class="cls-2" points="322.19 147.52 322.19 148.28 319.69 150.78 319.69 150.02 322.19 147.52"/>
    <polygon class="cls-2" points="322.19 151.29 322.19 152.05 319.69 154.55 319.69 153.79 322.19 151.29"/>
    <polygon class="cls-2" points="322.19 155.06 322.19 155.81 319.69 158.31 319.69 157.56 322.19 155.06"/>
    <polygon class="cls-2" points="322.19 158.82 322.19 159.58 319.69 162.08 319.69 161.32 322.19 158.82"/>
    <polygon class="cls-2" points="322.19 162.59 322.19 163.35 319.69 165.85 319.69 165.09 322.19 162.59"/>
    <polygon class="cls-2" points="322.19 166.36 322.19 167.11 322.11 167.19 321.36 167.19 322.19 166.36"/>
  </g>
  <rect class="cls-1" x="36.77" y="509.65" width="179.23" height="9.25" rx="4" ry="4"/>
  <rect class="cls-1" x="121.76" y="28.85" width="227.74" height="9.25" rx="4" ry="4"/>
  <rect class="cls-1" x="-115.82" y="266.43" width="484.42" height="9.25" rx="4" ry="4" transform="translate(-144.68 397.44) rotate(-90)"/>
</svg>